<svg width="51" height="50" viewBox="0 0 51 50" fill="none" xmlns="http://www.w3.org/2000/svg">
<g clip-path="url(#clip0_1_1439)">
<path d="M21.7483 29.1202C21.7483 31.2742 20.1858 31.955 18.2662 31.955H13.2327V26.051H18.3666C20.4425 26.0622 21.7483 26.9215 21.7483 29.1202ZM20.889 19.9349C20.889 17.9595 19.3599 17.4907 17.6635 17.4907H13.2439V22.4907H18.0095C19.6948 22.4907 20.889 21.7541 20.889 19.9349ZM35.6546 22.5242C33.6122 22.5242 32.2506 23.7965 32.1166 25.8389H39.0586C38.8689 23.7742 37.7974 22.5242 35.6546 22.5242ZM50.9336 5.34787V44.6336C50.9336 47.5912 48.534 49.9907 45.5765 49.9907H6.29074C3.33315 49.9907 0.933594 47.5912 0.933594 44.6336V5.34787C0.933594 2.39028 3.33315 -0.00927734 6.29074 -0.00927734H45.5765C48.534 -0.00927734 50.9336 2.39028 50.9336 5.34787ZM31.2573 17.0666H39.9403V14.9572H31.2573V17.0666ZM26.4581 29.3769C26.4581 26.6871 25.1858 24.3657 22.5519 23.618C24.4715 22.7028 25.476 21.6425 25.476 19.4885C25.476 15.2251 22.2952 14.1872 18.6233 14.1872H8.52288V35.6157H18.9135C22.8086 35.5934 26.4581 33.7296 26.4581 29.3769ZM43.3443 27.7251C43.3443 23.138 40.6546 19.3099 35.7997 19.3099C31.0675 19.3099 27.8644 22.859 27.8644 27.5242C27.8644 32.3568 30.9113 35.6715 35.7997 35.6715C39.505 35.6715 41.9046 34.0086 43.0653 30.4483H39.3041C38.8912 31.7764 37.2282 32.4684 35.9336 32.4684C33.4336 32.4684 32.1278 31.0063 32.1278 28.5287H43.3108C43.322 28.272 43.3443 27.993 43.3443 27.7251Z" fill="#2A2A2A"/>
</g>
<defs>
<clipPath id="clip0_1_1439">
<rect x="0.94043" y="0.000488281" width="50" height="50" rx="10" fill="white"/>
</clipPath>
</defs>
</svg>
