<svg width="24" height="24" viewBox="0 0 24 24" fill="none" xmlns="http://www.w3.org/2000/svg">
<path d="M20.9444 11.2222H3.05556C2.47259 11.2222 2 11.6475 2 12.1722V12.2722C2 12.7968 2.47259 13.2222 3.05556 13.2222H20.9444C21.5274 13.2222 22 12.7968 22 12.2722V12.1722C22 11.6475 21.5274 11.2222 20.9444 11.2222Z" fill="black"/>
<path d="M20.9444 17.4443H3.05556C2.47259 17.4443 2 17.8697 2 18.3943V18.4943C2 19.019 2.47259 19.4443 3.05556 19.4443H20.9444C21.5274 19.4443 22 19.019 22 18.4943V18.3943C22 17.8697 21.5274 17.4443 20.9444 17.4443Z" fill="black"/>
<path d="M20.9444 5H3.05556C2.47259 5 2 5.42533 2 5.95V6.05C2 6.57467 2.47259 7 3.05556 7H20.9444C21.5274 7 22 6.57467 22 6.05V5.95C22 5.42533 21.5274 5 20.9444 5Z" fill="black"/>
</svg>
