<svg width="24" height="24" viewBox="0 0 24 24" fill="none" xmlns="http://www.w3.org/2000/svg">
<path d="M21.0501 19.0501L4.95 2.95C4.42533 2.42533 3.69925 2.30075 3.32825 2.67175L3.25754 2.74246C2.88654 3.11346 3.01112 3.83954 3.53579 4.36422L19.6358 20.4643C20.1605 20.9889 20.8866 21.1135 21.2576 20.7425L21.3283 20.6718C21.6993 20.3008 21.5747 19.5747 21.0501 19.0501Z" fill="black"/>
<path d="M2.94995 19.0501L19.05 2.95C19.5747 2.42533 20.3008 2.30075 20.6718 2.67175L20.7425 2.74246C21.1135 3.11346 20.9889 3.83954 20.4642 4.36422L4.36416 20.4643C3.83949 20.9889 3.1134 21.1135 2.7424 20.7425L2.67169 20.6718C2.30069 20.3008 2.42527 19.5747 2.94995 19.0501Z" fill="black"/>
</svg>
