<svg width="101" height="188" viewBox="0 0 101 188" fill="none" xmlns="http://www.w3.org/2000/svg">
<circle r="1.5981" transform="matrix(-1 0 0 1 99.4019 1.5981)" fill="#2A2A2A"/>
<circle r="1.5981" transform="matrix(-1 0 0 1 88.5348 1.5981)" fill="#2A2A2A"/>
<circle r="1.5981" transform="matrix(-1 0 0 1 88.5348 1.5981)" fill="#2A2A2A"/>
<circle r="1.5981" transform="matrix(-1 0 0 1 88.5348 1.5981)" fill="#2A2A2A"/>
<circle r="1.5981" transform="matrix(-1 0 0 1 88.5348 1.5981)" fill="#2A2A2A"/>
<circle r="1.5981" transform="matrix(-1 0 0 1 88.5348 1.5981)" fill="#2A2A2A"/>
<circle r="1.5981" transform="matrix(-1 0 0 1 88.5348 1.5981)" fill="#2A2A2A"/>
<circle r="1.5981" transform="matrix(-1 0 0 1 88.5348 1.5981)" fill="#2A2A2A"/>
<circle r="1.5981" transform="matrix(-1 0 0 1 88.5348 1.5981)" fill="#2A2A2A"/>
<circle r="1.5981" transform="matrix(-1 0 0 1 88.5348 1.5981)" fill="#2A2A2A"/>
<circle r="1.5981" transform="matrix(-1 0 0 1 88.5348 1.5981)" fill="#2A2A2A"/>
<circle r="1.5981" transform="matrix(-1 0 0 1 88.5348 1.5981)" fill="#2A2A2A"/>
<circle r="1.5981" transform="matrix(-1 0 0 1 88.5348 1.5981)" fill="#2A2A2A"/>
<circle r="1.5981" transform="matrix(-1 0 0 1 88.5348 1.5981)" fill="#2A2A2A"/>
<circle r="1.5981" transform="matrix(-1 0 0 1 88.5348 1.5981)" fill="#2A2A2A"/>
<circle r="1.5981" transform="matrix(-1 0 0 1 88.5348 1.5981)" fill="#2A2A2A"/>
<circle r="1.5981" transform="matrix(-1 0 0 1 99.4019 12.4653)" fill="#2A2A2A"/>
<circle r="1.5981" transform="matrix(-1 0 0 1 88.5348 12.4653)" fill="#2A2A2A"/>
<circle r="1.5981" transform="matrix(-1 0 0 1 88.5348 12.4653)" fill="#2A2A2A"/>
<circle r="1.5981" transform="matrix(-1 0 0 1 88.5348 12.4653)" fill="#2A2A2A"/>
<circle r="1.5981" transform="matrix(-1 0 0 1 88.5348 12.4653)" fill="#2A2A2A"/>
<circle r="1.5981" transform="matrix(-1 0 0 1 88.5348 12.4653)" fill="#2A2A2A"/>
<circle r="1.5981" transform="matrix(-1 0 0 1 88.5348 12.4653)" fill="#2A2A2A"/>
<circle r="1.5981" transform="matrix(-1 0 0 1 88.5348 12.4653)" fill="#2A2A2A"/>
<circle r="1.5981" transform="matrix(-1 0 0 1 88.5348 12.4653)" fill="#2A2A2A"/>
<circle r="1.5981" transform="matrix(-1 0 0 1 88.5348 12.4653)" fill="#2A2A2A"/>
<circle r="1.5981" transform="matrix(-1 0 0 1 88.5348 12.4653)" fill="#2A2A2A"/>
<circle r="1.5981" transform="matrix(-1 0 0 1 88.5348 12.4653)" fill="#2A2A2A"/>
<circle r="1.5981" transform="matrix(-1 0 0 1 88.5348 12.4653)" fill="#2A2A2A"/>
<circle r="1.5981" transform="matrix(-1 0 0 1 88.5348 12.4653)" fill="#2A2A2A"/>
<circle r="1.5981" transform="matrix(-1 0 0 1 88.5348 12.4653)" fill="#2A2A2A"/>
<circle r="1.5981" transform="matrix(-1 0 0 1 88.5348 12.4653)" fill="#2A2A2A"/>
<circle r="1.5981" transform="matrix(-1 0 0 1 99.4019 23.3325)" fill="#2A2A2A"/>
<circle r="1.5981" transform="matrix(-1 0 0 1 88.5348 23.3325)" fill="#2A2A2A"/>
<circle r="1.5981" transform="matrix(-1 0 0 1 88.5348 23.3325)" fill="#2A2A2A"/>
<circle r="1.5981" transform="matrix(-1 0 0 1 88.5348 23.3325)" fill="#2A2A2A"/>
<circle r="1.5981" transform="matrix(-1 0 0 1 88.5348 23.3325)" fill="#2A2A2A"/>
<circle r="1.5981" transform="matrix(-1 0 0 1 88.5348 23.3325)" fill="#2A2A2A"/>
<circle r="1.5981" transform="matrix(-1 0 0 1 88.5348 23.3325)" fill="#2A2A2A"/>
<circle r="1.5981" transform="matrix(-1 0 0 1 88.5348 23.3325)" fill="#2A2A2A"/>
<circle r="1.5981" transform="matrix(-1 0 0 1 88.5348 23.3325)" fill="#2A2A2A"/>
<circle r="1.5981" transform="matrix(-1 0 0 1 88.5348 23.3325)" fill="#2A2A2A"/>
<circle r="1.5981" transform="matrix(-1 0 0 1 88.5348 23.3325)" fill="#2A2A2A"/>
<circle r="1.5981" transform="matrix(-1 0 0 1 88.5348 23.3325)" fill="#2A2A2A"/>
<circle r="1.5981" transform="matrix(-1 0 0 1 88.5348 23.3325)" fill="#2A2A2A"/>
<circle r="1.5981" transform="matrix(-1 0 0 1 88.5348 23.3325)" fill="#2A2A2A"/>
<circle r="1.5981" transform="matrix(-1 0 0 1 88.5348 23.3325)" fill="#2A2A2A"/>
<circle r="1.5981" transform="matrix(-1 0 0 1 88.5348 23.3325)" fill="#2A2A2A"/>
<circle r="1.5981" transform="matrix(-1 0 0 1 99.4019 34.1997)" fill="#2A2A2A"/>
<circle r="1.5981" transform="matrix(-1 0 0 1 88.5347 34.1997)" fill="#2A2A2A"/>
<circle r="1.5981" transform="matrix(-1 0 0 1 88.5347 34.1997)" fill="#2A2A2A"/>
<circle r="1.5981" transform="matrix(-1 0 0 1 88.5347 34.1997)" fill="#2A2A2A"/>
<circle r="1.5981" transform="matrix(-1 0 0 1 88.5347 34.1997)" fill="#2A2A2A"/>
<circle r="1.5981" transform="matrix(-1 0 0 1 88.5347 34.1997)" fill="#2A2A2A"/>
<circle r="1.5981" transform="matrix(-1 0 0 1 88.5347 34.1997)" fill="#2A2A2A"/>
<circle r="1.5981" transform="matrix(-1 0 0 1 88.5347 34.1997)" fill="#2A2A2A"/>
<circle r="1.5981" transform="matrix(-1 0 0 1 88.5347 34.1997)" fill="#2A2A2A"/>
<circle r="1.5981" transform="matrix(-1 0 0 1 88.5347 34.1997)" fill="#2A2A2A"/>
<circle r="1.5981" transform="matrix(-1 0 0 1 88.5347 34.1997)" fill="#2A2A2A"/>
<circle r="1.5981" transform="matrix(-1 0 0 1 88.5347 34.1997)" fill="#2A2A2A"/>
<circle r="1.5981" transform="matrix(-1 0 0 1 88.5347 34.1997)" fill="#2A2A2A"/>
<circle r="1.5981" transform="matrix(-1 0 0 1 88.5347 34.1997)" fill="#2A2A2A"/>
<circle r="1.5981" transform="matrix(-1 0 0 1 88.5347 34.1997)" fill="#2A2A2A"/>
<circle r="1.5981" transform="matrix(-1 0 0 1 88.5347 34.1997)" fill="#2A2A2A"/>
<circle r="1.5981" transform="matrix(-1 0 0 1 99.4019 45.0669)" fill="#2A2A2A"/>
<circle r="1.5981" transform="matrix(-1 0 0 1 88.5347 45.0669)" fill="#2A2A2A"/>
<circle r="1.5981" transform="matrix(-1 0 0 1 88.5347 45.0669)" fill="#2A2A2A"/>
<circle r="1.5981" transform="matrix(-1 0 0 1 88.5347 45.0669)" fill="#2A2A2A"/>
<circle r="1.5981" transform="matrix(-1 0 0 1 88.5347 45.0669)" fill="#2A2A2A"/>
<circle r="1.5981" transform="matrix(-1 0 0 1 88.5347 45.0669)" fill="#2A2A2A"/>
<circle r="1.5981" transform="matrix(-1 0 0 1 88.5347 45.0669)" fill="#2A2A2A"/>
<circle r="1.5981" transform="matrix(-1 0 0 1 88.5347 45.0669)" fill="#2A2A2A"/>
<circle r="1.5981" transform="matrix(-1 0 0 1 88.5347 45.0669)" fill="#2A2A2A"/>
<circle r="1.5981" transform="matrix(-1 0 0 1 88.5347 45.0669)" fill="#2A2A2A"/>
<circle r="1.5981" transform="matrix(-1 0 0 1 88.5347 45.0669)" fill="#2A2A2A"/>
<circle r="1.5981" transform="matrix(-1 0 0 1 88.5347 45.0669)" fill="#2A2A2A"/>
<circle r="1.5981" transform="matrix(-1 0 0 1 88.5347 45.0669)" fill="#2A2A2A"/>
<circle r="1.5981" transform="matrix(-1 0 0 1 88.5347 45.0669)" fill="#2A2A2A"/>
<circle r="1.5981" transform="matrix(-1 0 0 1 88.5347 45.0669)" fill="#2A2A2A"/>
<circle r="1.5981" transform="matrix(-1 0 0 1 88.5347 45.0669)" fill="#2A2A2A"/>
<circle r="1.5981" transform="matrix(-1 0 0 1 99.4019 55.9331)" fill="#2A2A2A"/>
<circle r="1.5981" transform="matrix(-1 0 0 1 88.5347 55.9331)" fill="#2A2A2A"/>
<circle r="1.5981" transform="matrix(-1 0 0 1 88.5347 55.9331)" fill="#2A2A2A"/>
<circle r="1.5981" transform="matrix(-1 0 0 1 88.5347 55.9331)" fill="#2A2A2A"/>
<circle r="1.5981" transform="matrix(-1 0 0 1 88.5347 55.9331)" fill="#2A2A2A"/>
<circle r="1.5981" transform="matrix(-1 0 0 1 88.5347 55.9331)" fill="#2A2A2A"/>
<circle r="1.5981" transform="matrix(-1 0 0 1 88.5347 55.9331)" fill="#2A2A2A"/>
<circle r="1.5981" transform="matrix(-1 0 0 1 88.5347 55.9331)" fill="#2A2A2A"/>
<circle r="1.5981" transform="matrix(-1 0 0 1 88.5347 55.9331)" fill="#2A2A2A"/>
<circle r="1.5981" transform="matrix(-1 0 0 1 88.5347 55.9331)" fill="#2A2A2A"/>
<circle r="1.5981" transform="matrix(-1 0 0 1 88.5347 55.9331)" fill="#2A2A2A"/>
<circle r="1.5981" transform="matrix(-1 0 0 1 88.5347 55.9331)" fill="#2A2A2A"/>
<circle r="1.5981" transform="matrix(-1 0 0 1 88.5347 55.9331)" fill="#2A2A2A"/>
<circle r="1.5981" transform="matrix(-1 0 0 1 88.5347 55.9331)" fill="#2A2A2A"/>
<circle r="1.5981" transform="matrix(-1 0 0 1 88.5347 55.9331)" fill="#2A2A2A"/>
<circle r="1.5981" transform="matrix(-1 0 0 1 88.5347 55.9331)" fill="#2A2A2A"/>
<circle r="1.5981" transform="matrix(-1 0 0 1 99.4019 66.8002)" fill="#2A2A2A"/>
<circle r="1.5981" transform="matrix(-1 0 0 1 88.5347 66.8002)" fill="#2A2A2A"/>
<circle r="1.5981" transform="matrix(-1 0 0 1 88.5347 66.8002)" fill="#2A2A2A"/>
<circle r="1.5981" transform="matrix(-1 0 0 1 88.5347 66.8002)" fill="#2A2A2A"/>
<circle r="1.5981" transform="matrix(-1 0 0 1 88.5347 66.8002)" fill="#2A2A2A"/>
<circle r="1.5981" transform="matrix(-1 0 0 1 88.5347 66.8002)" fill="#2A2A2A"/>
<circle r="1.5981" transform="matrix(-1 0 0 1 88.5347 66.8002)" fill="#2A2A2A"/>
<circle r="1.5981" transform="matrix(-1 0 0 1 88.5347 66.8002)" fill="#2A2A2A"/>
<circle r="1.5981" transform="matrix(-1 0 0 1 88.5347 66.8002)" fill="#2A2A2A"/>
<circle r="1.5981" transform="matrix(-1 0 0 1 88.5347 66.8002)" fill="#2A2A2A"/>
<circle r="1.5981" transform="matrix(-1 0 0 1 88.5347 66.8002)" fill="#2A2A2A"/>
<circle r="1.5981" transform="matrix(-1 0 0 1 88.5347 66.8002)" fill="#2A2A2A"/>
<circle r="1.5981" transform="matrix(-1 0 0 1 88.5347 66.8002)" fill="#2A2A2A"/>
<circle r="1.5981" transform="matrix(-1 0 0 1 88.5347 66.8002)" fill="#2A2A2A"/>
<circle r="1.5981" transform="matrix(-1 0 0 1 88.5347 66.8002)" fill="#2A2A2A"/>
<circle r="1.5981" transform="matrix(-1 0 0 1 88.5347 66.8002)" fill="#2A2A2A"/>
<circle r="1.5981" transform="matrix(-1 0 0 1 99.4019 77.6674)" fill="#2A2A2A"/>
<circle r="1.5981" transform="matrix(-1 0 0 1 88.5347 77.6674)" fill="#2A2A2A"/>
<circle r="1.5981" transform="matrix(-1 0 0 1 88.5347 77.6674)" fill="#2A2A2A"/>
<circle r="1.5981" transform="matrix(-1 0 0 1 88.5347 77.6674)" fill="#2A2A2A"/>
<circle r="1.5981" transform="matrix(-1 0 0 1 88.5347 77.6674)" fill="#2A2A2A"/>
<circle r="1.5981" transform="matrix(-1 0 0 1 88.5347 77.6674)" fill="#2A2A2A"/>
<circle r="1.5981" transform="matrix(-1 0 0 1 88.5347 77.6674)" fill="#2A2A2A"/>
<circle r="1.5981" transform="matrix(-1 0 0 1 88.5347 77.6674)" fill="#2A2A2A"/>
<circle r="1.5981" transform="matrix(-1 0 0 1 88.5347 77.6674)" fill="#2A2A2A"/>
<circle r="1.5981" transform="matrix(-1 0 0 1 88.5347 77.6674)" fill="#2A2A2A"/>
<circle r="1.5981" transform="matrix(-1 0 0 1 88.5347 77.6674)" fill="#2A2A2A"/>
<circle r="1.5981" transform="matrix(-1 0 0 1 88.5347 77.6674)" fill="#2A2A2A"/>
<circle r="1.5981" transform="matrix(-1 0 0 1 88.5347 77.6674)" fill="#2A2A2A"/>
<circle r="1.5981" transform="matrix(-1 0 0 1 88.5347 77.6674)" fill="#2A2A2A"/>
<circle r="1.5981" transform="matrix(-1 0 0 1 88.5347 77.6674)" fill="#2A2A2A"/>
<circle r="1.5981" transform="matrix(-1 0 0 1 88.5347 77.6674)" fill="#2A2A2A"/>
<circle r="1.5981" transform="matrix(-1 0 0 1 99.4019 88.5639)" fill="#2A2A2A"/>
<circle r="1.5981" transform="matrix(-1 0 0 1 88.5348 88.5639)" fill="#2A2A2A"/>
<circle r="1.5981" transform="matrix(-1 0 0 1 88.5348 88.5639)" fill="#2A2A2A"/>
<circle r="1.5981" transform="matrix(-1 0 0 1 88.5348 88.5639)" fill="#2A2A2A"/>
<circle r="1.5981" transform="matrix(-1 0 0 1 88.5348 88.5639)" fill="#2A2A2A"/>
<circle r="1.5981" transform="matrix(-1 0 0 1 88.5348 88.5639)" fill="#2A2A2A"/>
<circle r="1.5981" transform="matrix(-1 0 0 1 88.5348 88.5639)" fill="#2A2A2A"/>
<circle r="1.5981" transform="matrix(-1 0 0 1 88.5348 88.5639)" fill="#2A2A2A"/>
<circle r="1.5981" transform="matrix(-1 0 0 1 88.5348 88.5639)" fill="#2A2A2A"/>
<circle r="1.5981" transform="matrix(-1 0 0 1 88.5348 88.5639)" fill="#2A2A2A"/>
<circle r="1.5981" transform="matrix(-1 0 0 1 88.5348 88.5639)" fill="#2A2A2A"/>
<circle r="1.5981" transform="matrix(-1 0 0 1 88.5348 88.5639)" fill="#2A2A2A"/>
<circle r="1.5981" transform="matrix(-1 0 0 1 88.5348 88.5639)" fill="#2A2A2A"/>
<circle r="1.5981" transform="matrix(-1 0 0 1 88.5348 88.5639)" fill="#2A2A2A"/>
<circle r="1.5981" transform="matrix(-1 0 0 1 88.5348 88.5639)" fill="#2A2A2A"/>
<circle r="1.5981" transform="matrix(-1 0 0 1 88.5348 88.5639)" fill="#2A2A2A"/>
<circle r="1.5981" transform="matrix(-1 0 0 1 99.4019 99.4311)" fill="#2A2A2A"/>
<circle r="1.5981" transform="matrix(-1 0 0 1 88.5348 99.4311)" fill="#2A2A2A"/>
<circle r="1.5981" transform="matrix(-1 0 0 1 88.5348 99.4311)" fill="#2A2A2A"/>
<circle r="1.5981" transform="matrix(-1 0 0 1 88.5348 99.4311)" fill="#2A2A2A"/>
<circle r="1.5981" transform="matrix(-1 0 0 1 88.5348 99.4311)" fill="#2A2A2A"/>
<circle r="1.5981" transform="matrix(-1 0 0 1 88.5348 99.4311)" fill="#2A2A2A"/>
<circle r="1.5981" transform="matrix(-1 0 0 1 88.5348 99.4311)" fill="#2A2A2A"/>
<circle r="1.5981" transform="matrix(-1 0 0 1 88.5348 99.4311)" fill="#2A2A2A"/>
<circle r="1.5981" transform="matrix(-1 0 0 1 88.5348 99.4311)" fill="#2A2A2A"/>
<circle r="1.5981" transform="matrix(-1 0 0 1 88.5348 99.4311)" fill="#2A2A2A"/>
<circle r="1.5981" transform="matrix(-1 0 0 1 88.5348 99.4311)" fill="#2A2A2A"/>
<circle r="1.5981" transform="matrix(-1 0 0 1 88.5348 99.4311)" fill="#2A2A2A"/>
<circle r="1.5981" transform="matrix(-1 0 0 1 88.5348 99.4311)" fill="#2A2A2A"/>
<circle r="1.5981" transform="matrix(-1 0 0 1 88.5348 99.4311)" fill="#2A2A2A"/>
<circle r="1.5981" transform="matrix(-1 0 0 1 88.5348 99.4311)" fill="#2A2A2A"/>
<circle r="1.5981" transform="matrix(-1 0 0 1 88.5348 99.4311)" fill="#2A2A2A"/>
<circle r="1.5981" transform="matrix(-1 0 0 1 99.4019 110.298)" fill="#2A2A2A"/>
<circle r="1.5981" transform="matrix(-1 0 0 1 88.5348 110.298)" fill="#2A2A2A"/>
<circle r="1.5981" transform="matrix(-1 0 0 1 88.5348 110.298)" fill="#2A2A2A"/>
<circle r="1.5981" transform="matrix(-1 0 0 1 88.5348 110.298)" fill="#2A2A2A"/>
<circle r="1.5981" transform="matrix(-1 0 0 1 88.5348 110.298)" fill="#2A2A2A"/>
<circle r="1.5981" transform="matrix(-1 0 0 1 88.5348 110.298)" fill="#2A2A2A"/>
<circle r="1.5981" transform="matrix(-1 0 0 1 88.5348 110.298)" fill="#2A2A2A"/>
<circle r="1.5981" transform="matrix(-1 0 0 1 88.5348 110.298)" fill="#2A2A2A"/>
<circle r="1.5981" transform="matrix(-1 0 0 1 88.5348 110.298)" fill="#2A2A2A"/>
<circle r="1.5981" transform="matrix(-1 0 0 1 88.5348 110.298)" fill="#2A2A2A"/>
<circle r="1.5981" transform="matrix(-1 0 0 1 88.5348 110.298)" fill="#2A2A2A"/>
<circle r="1.5981" transform="matrix(-1 0 0 1 88.5348 110.298)" fill="#2A2A2A"/>
<circle r="1.5981" transform="matrix(-1 0 0 1 88.5348 110.298)" fill="#2A2A2A"/>
<circle r="1.5981" transform="matrix(-1 0 0 1 88.5348 110.298)" fill="#2A2A2A"/>
<circle r="1.5981" transform="matrix(-1 0 0 1 88.5348 110.298)" fill="#2A2A2A"/>
<circle r="1.5981" transform="matrix(-1 0 0 1 88.5348 110.298)" fill="#2A2A2A"/>
<circle r="1.5981" transform="matrix(-1 0 0 1 99.4019 121.165)" fill="#2A2A2A"/>
<circle r="1.5981" transform="matrix(-1 0 0 1 88.5347 121.165)" fill="#2A2A2A"/>
<circle r="1.5981" transform="matrix(-1 0 0 1 88.5347 121.165)" fill="#2A2A2A"/>
<circle r="1.5981" transform="matrix(-1 0 0 1 88.5347 121.165)" fill="#2A2A2A"/>
<circle r="1.5981" transform="matrix(-1 0 0 1 88.5347 121.165)" fill="#2A2A2A"/>
<circle r="1.5981" transform="matrix(-1 0 0 1 88.5347 121.165)" fill="#2A2A2A"/>
<circle r="1.5981" transform="matrix(-1 0 0 1 88.5347 121.165)" fill="#2A2A2A"/>
<circle r="1.5981" transform="matrix(-1 0 0 1 88.5347 121.165)" fill="#2A2A2A"/>
<circle r="1.5981" transform="matrix(-1 0 0 1 88.5347 121.165)" fill="#2A2A2A"/>
<circle r="1.5981" transform="matrix(-1 0 0 1 88.5347 121.165)" fill="#2A2A2A"/>
<circle r="1.5981" transform="matrix(-1 0 0 1 88.5347 121.165)" fill="#2A2A2A"/>
<circle r="1.5981" transform="matrix(-1 0 0 1 88.5347 121.165)" fill="#2A2A2A"/>
<circle r="1.5981" transform="matrix(-1 0 0 1 88.5347 121.165)" fill="#2A2A2A"/>
<circle r="1.5981" transform="matrix(-1 0 0 1 88.5347 121.165)" fill="#2A2A2A"/>
<circle r="1.5981" transform="matrix(-1 0 0 1 88.5347 121.165)" fill="#2A2A2A"/>
<circle r="1.5981" transform="matrix(-1 0 0 1 88.5347 121.165)" fill="#2A2A2A"/>
<circle r="1.5981" transform="matrix(-1 0 0 1 99.4019 132.033)" fill="#2A2A2A"/>
<circle r="1.5981" transform="matrix(-1 0 0 1 88.5347 132.033)" fill="#2A2A2A"/>
<circle r="1.5981" transform="matrix(-1 0 0 1 88.5347 132.033)" fill="#2A2A2A"/>
<circle r="1.5981" transform="matrix(-1 0 0 1 88.5347 132.033)" fill="#2A2A2A"/>
<circle r="1.5981" transform="matrix(-1 0 0 1 88.5347 132.033)" fill="#2A2A2A"/>
<circle r="1.5981" transform="matrix(-1 0 0 1 88.5347 132.033)" fill="#2A2A2A"/>
<circle r="1.5981" transform="matrix(-1 0 0 1 88.5347 132.033)" fill="#2A2A2A"/>
<circle r="1.5981" transform="matrix(-1 0 0 1 88.5347 132.033)" fill="#2A2A2A"/>
<circle r="1.5981" transform="matrix(-1 0 0 1 88.5347 132.033)" fill="#2A2A2A"/>
<circle r="1.5981" transform="matrix(-1 0 0 1 88.5347 132.033)" fill="#2A2A2A"/>
<circle r="1.5981" transform="matrix(-1 0 0 1 88.5347 132.033)" fill="#2A2A2A"/>
<circle r="1.5981" transform="matrix(-1 0 0 1 88.5347 132.033)" fill="#2A2A2A"/>
<circle r="1.5981" transform="matrix(-1 0 0 1 88.5347 132.033)" fill="#2A2A2A"/>
<circle r="1.5981" transform="matrix(-1 0 0 1 88.5347 132.033)" fill="#2A2A2A"/>
<circle r="1.5981" transform="matrix(-1 0 0 1 88.5347 132.033)" fill="#2A2A2A"/>
<circle r="1.5981" transform="matrix(-1 0 0 1 88.5347 132.033)" fill="#2A2A2A"/>
<circle r="1.5981" transform="matrix(-1 0 0 1 99.4019 142.899)" fill="#2A2A2A"/>
<circle r="1.5981" transform="matrix(-1 0 0 1 88.5347 142.899)" fill="#2A2A2A"/>
<circle r="1.5981" transform="matrix(-1 0 0 1 88.5347 142.899)" fill="#2A2A2A"/>
<circle r="1.5981" transform="matrix(-1 0 0 1 88.5347 142.899)" fill="#2A2A2A"/>
<circle r="1.5981" transform="matrix(-1 0 0 1 88.5347 142.899)" fill="#2A2A2A"/>
<circle r="1.5981" transform="matrix(-1 0 0 1 88.5347 142.899)" fill="#2A2A2A"/>
<circle r="1.5981" transform="matrix(-1 0 0 1 88.5347 142.899)" fill="#2A2A2A"/>
<circle r="1.5981" transform="matrix(-1 0 0 1 88.5347 142.899)" fill="#2A2A2A"/>
<circle r="1.5981" transform="matrix(-1 0 0 1 88.5347 142.899)" fill="#2A2A2A"/>
<circle r="1.5981" transform="matrix(-1 0 0 1 88.5347 142.899)" fill="#2A2A2A"/>
<circle r="1.5981" transform="matrix(-1 0 0 1 88.5347 142.899)" fill="#2A2A2A"/>
<circle r="1.5981" transform="matrix(-1 0 0 1 88.5347 142.899)" fill="#2A2A2A"/>
<circle r="1.5981" transform="matrix(-1 0 0 1 88.5347 142.899)" fill="#2A2A2A"/>
<circle r="1.5981" transform="matrix(-1 0 0 1 88.5347 142.899)" fill="#2A2A2A"/>
<circle r="1.5981" transform="matrix(-1 0 0 1 88.5347 142.899)" fill="#2A2A2A"/>
<circle r="1.5981" transform="matrix(-1 0 0 1 88.5347 142.899)" fill="#2A2A2A"/>
<circle r="1.5981" transform="matrix(-1 0 0 1 99.4019 153.766)" fill="#2A2A2A"/>
<circle r="1.5981" transform="matrix(-1 0 0 1 88.5347 153.766)" fill="#2A2A2A"/>
<circle r="1.5981" transform="matrix(-1 0 0 1 88.5347 153.766)" fill="#2A2A2A"/>
<circle r="1.5981" transform="matrix(-1 0 0 1 88.5347 153.766)" fill="#2A2A2A"/>
<circle r="1.5981" transform="matrix(-1 0 0 1 88.5347 153.766)" fill="#2A2A2A"/>
<circle r="1.5981" transform="matrix(-1 0 0 1 88.5347 153.766)" fill="#2A2A2A"/>
<circle r="1.5981" transform="matrix(-1 0 0 1 88.5347 153.766)" fill="#2A2A2A"/>
<circle r="1.5981" transform="matrix(-1 0 0 1 88.5347 153.766)" fill="#2A2A2A"/>
<circle r="1.5981" transform="matrix(-1 0 0 1 88.5347 153.766)" fill="#2A2A2A"/>
<circle r="1.5981" transform="matrix(-1 0 0 1 88.5347 153.766)" fill="#2A2A2A"/>
<circle r="1.5981" transform="matrix(-1 0 0 1 88.5347 153.766)" fill="#2A2A2A"/>
<circle r="1.5981" transform="matrix(-1 0 0 1 88.5347 153.766)" fill="#2A2A2A"/>
<circle r="1.5981" transform="matrix(-1 0 0 1 88.5347 153.766)" fill="#2A2A2A"/>
<circle r="1.5981" transform="matrix(-1 0 0 1 88.5347 153.766)" fill="#2A2A2A"/>
<circle r="1.5981" transform="matrix(-1 0 0 1 88.5347 153.766)" fill="#2A2A2A"/>
<circle r="1.5981" transform="matrix(-1 0 0 1 88.5347 153.766)" fill="#2A2A2A"/>
<circle r="1.5981" transform="matrix(-1 0 0 1 99.4019 164.633)" fill="#2A2A2A"/>
<circle r="1.5981" transform="matrix(-1 0 0 1 88.5347 164.633)" fill="#2A2A2A"/>
<circle r="1.5981" transform="matrix(-1 0 0 1 88.5347 164.633)" fill="#2A2A2A"/>
<circle r="1.5981" transform="matrix(-1 0 0 1 88.5347 164.633)" fill="#2A2A2A"/>
<circle r="1.5981" transform="matrix(-1 0 0 1 88.5347 164.633)" fill="#2A2A2A"/>
<circle r="1.5981" transform="matrix(-1 0 0 1 88.5347 164.633)" fill="#2A2A2A"/>
<circle r="1.5981" transform="matrix(-1 0 0 1 88.5347 164.633)" fill="#2A2A2A"/>
<circle r="1.5981" transform="matrix(-1 0 0 1 88.5347 164.633)" fill="#2A2A2A"/>
<circle r="1.5981" transform="matrix(-1 0 0 1 88.5347 164.633)" fill="#2A2A2A"/>
<circle r="1.5981" transform="matrix(-1 0 0 1 88.5347 164.633)" fill="#2A2A2A"/>
<circle r="1.5981" transform="matrix(-1 0 0 1 88.5347 164.633)" fill="#2A2A2A"/>
<circle r="1.5981" transform="matrix(-1 0 0 1 88.5347 164.633)" fill="#2A2A2A"/>
<circle r="1.5981" transform="matrix(-1 0 0 1 88.5347 164.633)" fill="#2A2A2A"/>
<circle r="1.5981" transform="matrix(-1 0 0 1 88.5347 164.633)" fill="#2A2A2A"/>
<circle r="1.5981" transform="matrix(-1 0 0 1 88.5347 164.633)" fill="#2A2A2A"/>
<circle r="1.5981" transform="matrix(-1 0 0 1 88.5347 164.633)" fill="#2A2A2A"/>
<circle r="1.5981" transform="matrix(-1 0 0 1 99.4019 175.5)" fill="#2A2A2A"/>
<circle r="1.5981" transform="matrix(-1 0 0 1 88.5348 175.5)" fill="#2A2A2A"/>
<circle r="1.5981" transform="matrix(-1 0 0 1 88.5348 175.5)" fill="#2A2A2A"/>
<circle r="1.5981" transform="matrix(-1 0 0 1 88.5348 175.5)" fill="#2A2A2A"/>
<circle r="1.5981" transform="matrix(-1 0 0 1 88.5348 175.5)" fill="#2A2A2A"/>
<circle r="1.5981" transform="matrix(-1 0 0 1 88.5348 175.5)" fill="#2A2A2A"/>
<circle r="1.5981" transform="matrix(-1 0 0 1 88.5348 175.5)" fill="#2A2A2A"/>
<circle r="1.5981" transform="matrix(-1 0 0 1 88.5348 175.5)" fill="#2A2A2A"/>
<circle r="1.5981" transform="matrix(-1 0 0 1 88.5348 175.5)" fill="#2A2A2A"/>
<circle r="1.5981" transform="matrix(-1 0 0 1 88.5348 175.5)" fill="#2A2A2A"/>
<circle r="1.5981" transform="matrix(-1 0 0 1 88.5348 175.5)" fill="#2A2A2A"/>
<circle r="1.5981" transform="matrix(-1 0 0 1 88.5348 175.5)" fill="#2A2A2A"/>
<circle r="1.5981" transform="matrix(-1 0 0 1 88.5348 175.5)" fill="#2A2A2A"/>
<circle r="1.5981" transform="matrix(-1 0 0 1 88.5348 175.5)" fill="#2A2A2A"/>
<circle r="1.5981" transform="matrix(-1 0 0 1 88.5348 175.5)" fill="#2A2A2A"/>
<circle r="1.5981" transform="matrix(-1 0 0 1 88.5348 175.5)" fill="#2A2A2A"/>
<circle r="1.5981" transform="matrix(-1 0 0 1 77.6677 175.5)" fill="#2A2A2A"/>
<circle r="1.5981" transform="matrix(-1 0 0 1 66.8003 175.5)" fill="#2A2A2A"/>
<circle r="1.5981" transform="matrix(-1 0 0 1 66.8003 175.5)" fill="#2A2A2A"/>
<circle r="1.5981" transform="matrix(-1 0 0 1 66.8003 175.5)" fill="#2A2A2A"/>
<circle r="1.5981" transform="matrix(-1 0 0 1 66.8003 175.5)" fill="#2A2A2A"/>
<circle r="1.5981" transform="matrix(-1 0 0 1 66.8003 175.5)" fill="#2A2A2A"/>
<circle r="1.5981" transform="matrix(-1 0 0 1 66.8003 175.5)" fill="#2A2A2A"/>
<circle r="1.5981" transform="matrix(-1 0 0 1 66.8003 175.5)" fill="#2A2A2A"/>
<circle r="1.5981" transform="matrix(-1 0 0 1 66.8003 175.5)" fill="#2A2A2A"/>
<circle r="1.5981" transform="matrix(-1 0 0 1 66.8003 175.5)" fill="#2A2A2A"/>
<circle r="1.5981" transform="matrix(-1 0 0 1 66.8003 175.5)" fill="#2A2A2A"/>
<circle r="1.5981" transform="matrix(-1 0 0 1 66.8003 175.5)" fill="#2A2A2A"/>
<circle r="1.5981" transform="matrix(-1 0 0 1 66.8003 175.5)" fill="#2A2A2A"/>
<circle r="1.5981" transform="matrix(-1 0 0 1 66.8003 175.5)" fill="#2A2A2A"/>
<circle r="1.5981" transform="matrix(-1 0 0 1 66.8003 175.5)" fill="#2A2A2A"/>
<circle r="1.5981" transform="matrix(-1 0 0 1 66.8003 175.5)" fill="#2A2A2A"/>
<circle r="1.5981" transform="matrix(-1 0 0 1 55.9331 175.5)" fill="#2A2A2A"/>
<circle r="1.5981" transform="matrix(-1 0 0 1 45.0669 175.5)" fill="#2A2A2A"/>
<circle r="1.5981" transform="matrix(-1 0 0 1 45.0669 175.5)" fill="#2A2A2A"/>
<circle r="1.5981" transform="matrix(-1 0 0 1 45.0669 175.5)" fill="#2A2A2A"/>
<circle r="1.5981" transform="matrix(-1 0 0 1 45.0669 175.5)" fill="#2A2A2A"/>
<circle r="1.5981" transform="matrix(-1 0 0 1 45.0669 175.5)" fill="#2A2A2A"/>
<circle r="1.5981" transform="matrix(-1 0 0 1 45.0669 175.5)" fill="#2A2A2A"/>
<circle r="1.5981" transform="matrix(-1 0 0 1 45.0669 175.5)" fill="#2A2A2A"/>
<circle r="1.5981" transform="matrix(-1 0 0 1 45.0669 175.5)" fill="#2A2A2A"/>
<circle r="1.5981" transform="matrix(-1 0 0 1 45.0669 175.5)" fill="#2A2A2A"/>
<circle r="1.5981" transform="matrix(-1 0 0 1 45.0669 175.5)" fill="#2A2A2A"/>
<circle r="1.5981" transform="matrix(-1 0 0 1 45.0669 175.5)" fill="#2A2A2A"/>
<circle r="1.5981" transform="matrix(-1 0 0 1 45.0669 175.5)" fill="#2A2A2A"/>
<circle r="1.5981" transform="matrix(-1 0 0 1 45.0669 175.5)" fill="#2A2A2A"/>
<circle r="1.5981" transform="matrix(-1 0 0 1 45.0669 175.5)" fill="#2A2A2A"/>
<circle r="1.5981" transform="matrix(-1 0 0 1 45.0669 175.5)" fill="#2A2A2A"/>
<circle r="1.5981" transform="matrix(-1 0 0 1 34.1998 175.5)" fill="#2A2A2A"/>
<circle r="1.5981" transform="matrix(-1 0 0 1 23.3326 175.5)" fill="#2A2A2A"/>
<circle r="1.5981" transform="matrix(-1 0 0 1 23.3326 175.5)" fill="#2A2A2A"/>
<circle r="1.5981" transform="matrix(-1 0 0 1 23.3326 175.5)" fill="#2A2A2A"/>
<circle r="1.5981" transform="matrix(-1 0 0 1 23.3326 175.5)" fill="#2A2A2A"/>
<circle r="1.5981" transform="matrix(-1 0 0 1 23.3326 175.5)" fill="#2A2A2A"/>
<circle r="1.5981" transform="matrix(-1 0 0 1 23.3326 175.5)" fill="#2A2A2A"/>
<circle r="1.5981" transform="matrix(-1 0 0 1 23.3326 175.5)" fill="#2A2A2A"/>
<circle r="1.5981" transform="matrix(-1 0 0 1 23.3326 175.5)" fill="#2A2A2A"/>
<circle r="1.5981" transform="matrix(-1 0 0 1 23.3326 175.5)" fill="#2A2A2A"/>
<circle r="1.5981" transform="matrix(-1 0 0 1 23.3326 175.5)" fill="#2A2A2A"/>
<circle r="1.5981" transform="matrix(-1 0 0 1 23.3326 175.5)" fill="#2A2A2A"/>
<circle r="1.5981" transform="matrix(-1 0 0 1 23.3326 175.5)" fill="#2A2A2A"/>
<circle r="1.5981" transform="matrix(-1 0 0 1 23.3326 175.5)" fill="#2A2A2A"/>
<circle r="1.5981" transform="matrix(-1 0 0 1 23.3326 175.5)" fill="#2A2A2A"/>
<circle r="1.5981" transform="matrix(-1 0 0 1 23.3326 175.5)" fill="#2A2A2A"/>
<circle r="1.5981" transform="matrix(-1 0 0 1 12.4652 175.5)" fill="#2A2A2A"/>
<circle r="1.5981" transform="matrix(-1 0 0 1 1.5981 175.5)" fill="#2A2A2A"/>
<circle r="1.5981" transform="matrix(-1 0 0 1 1.5981 175.5)" fill="#2A2A2A"/>
<circle r="1.5981" transform="matrix(-1 0 0 1 1.5981 175.5)" fill="#2A2A2A"/>
<circle r="1.5981" transform="matrix(-1 0 0 1 1.5981 175.5)" fill="#2A2A2A"/>
<circle r="1.5981" transform="matrix(-1 0 0 1 1.5981 175.5)" fill="#2A2A2A"/>
<circle r="1.5981" transform="matrix(-1 0 0 1 1.5981 175.5)" fill="#2A2A2A"/>
<circle r="1.5981" transform="matrix(-1 0 0 1 1.5981 175.5)" fill="#2A2A2A"/>
<circle r="1.5981" transform="matrix(-1 0 0 1 1.5981 175.5)" fill="#2A2A2A"/>
<circle r="1.5981" transform="matrix(-1 0 0 1 1.5981 175.5)" fill="#2A2A2A"/>
<circle r="1.5981" transform="matrix(-1 0 0 1 1.5981 175.5)" fill="#2A2A2A"/>
<circle r="1.5981" transform="matrix(-1 0 0 1 1.5981 175.5)" fill="#2A2A2A"/>
<circle r="1.5981" transform="matrix(-1 0 0 1 1.5981 175.5)" fill="#2A2A2A"/>
<circle r="1.5981" transform="matrix(-1 0 0 1 1.5981 175.5)" fill="#2A2A2A"/>
<circle r="1.5981" transform="matrix(-1 0 0 1 1.5981 175.5)" fill="#2A2A2A"/>
<circle r="1.5981" transform="matrix(-1 0 0 1 1.5981 175.5)" fill="#2A2A2A"/>
<circle r="1.5981" transform="matrix(-1 0 0 1 99.4019 186.368)" fill="#2A2A2A"/>
<circle r="1.5981" transform="matrix(-1 0 0 1 88.5348 186.368)" fill="#2A2A2A"/>
<circle r="1.5981" transform="matrix(-1 0 0 1 88.5348 186.368)" fill="#2A2A2A"/>
<circle r="1.5981" transform="matrix(-1 0 0 1 88.5348 186.368)" fill="#2A2A2A"/>
<circle r="1.5981" transform="matrix(-1 0 0 1 88.5348 186.368)" fill="#2A2A2A"/>
<circle r="1.5981" transform="matrix(-1 0 0 1 88.5348 186.368)" fill="#2A2A2A"/>
<circle r="1.5981" transform="matrix(-1 0 0 1 88.5348 186.368)" fill="#2A2A2A"/>
<circle r="1.5981" transform="matrix(-1 0 0 1 88.5348 186.368)" fill="#2A2A2A"/>
<circle r="1.5981" transform="matrix(-1 0 0 1 88.5348 186.368)" fill="#2A2A2A"/>
<circle r="1.5981" transform="matrix(-1 0 0 1 88.5348 186.368)" fill="#2A2A2A"/>
<circle r="1.5981" transform="matrix(-1 0 0 1 88.5348 186.368)" fill="#2A2A2A"/>
<circle r="1.5981" transform="matrix(-1 0 0 1 88.5348 186.368)" fill="#2A2A2A"/>
<circle r="1.5981" transform="matrix(-1 0 0 1 88.5348 186.368)" fill="#2A2A2A"/>
<circle r="1.5981" transform="matrix(-1 0 0 1 88.5348 186.368)" fill="#2A2A2A"/>
<circle r="1.5981" transform="matrix(-1 0 0 1 88.5348 186.368)" fill="#2A2A2A"/>
<circle r="1.5981" transform="matrix(-1 0 0 1 88.5348 186.368)" fill="#2A2A2A"/>
<circle r="1.5981" transform="matrix(-1 0 0 1 77.6677 186.368)" fill="#2A2A2A"/>
<circle r="1.5981" transform="matrix(-1 0 0 1 66.8003 186.368)" fill="#2A2A2A"/>
<circle r="1.5981" transform="matrix(-1 0 0 1 66.8003 186.368)" fill="#2A2A2A"/>
<circle r="1.5981" transform="matrix(-1 0 0 1 66.8003 186.368)" fill="#2A2A2A"/>
<circle r="1.5981" transform="matrix(-1 0 0 1 66.8003 186.368)" fill="#2A2A2A"/>
<circle r="1.5981" transform="matrix(-1 0 0 1 66.8003 186.368)" fill="#2A2A2A"/>
<circle r="1.5981" transform="matrix(-1 0 0 1 66.8003 186.368)" fill="#2A2A2A"/>
<circle r="1.5981" transform="matrix(-1 0 0 1 66.8003 186.368)" fill="#2A2A2A"/>
<circle r="1.5981" transform="matrix(-1 0 0 1 66.8003 186.368)" fill="#2A2A2A"/>
<circle r="1.5981" transform="matrix(-1 0 0 1 66.8003 186.368)" fill="#2A2A2A"/>
<circle r="1.5981" transform="matrix(-1 0 0 1 66.8003 186.368)" fill="#2A2A2A"/>
<circle r="1.5981" transform="matrix(-1 0 0 1 66.8003 186.368)" fill="#2A2A2A"/>
<circle r="1.5981" transform="matrix(-1 0 0 1 66.8003 186.368)" fill="#2A2A2A"/>
<circle r="1.5981" transform="matrix(-1 0 0 1 66.8003 186.368)" fill="#2A2A2A"/>
<circle r="1.5981" transform="matrix(-1 0 0 1 66.8003 186.368)" fill="#2A2A2A"/>
<circle r="1.5981" transform="matrix(-1 0 0 1 66.8003 186.368)" fill="#2A2A2A"/>
<circle r="1.5981" transform="matrix(-1 0 0 1 55.9331 186.368)" fill="#2A2A2A"/>
<circle r="1.5981" transform="matrix(-1 0 0 1 45.0669 186.368)" fill="#2A2A2A"/>
<circle r="1.5981" transform="matrix(-1 0 0 1 45.0669 186.368)" fill="#2A2A2A"/>
<circle r="1.5981" transform="matrix(-1 0 0 1 45.0669 186.368)" fill="#2A2A2A"/>
<circle r="1.5981" transform="matrix(-1 0 0 1 45.0669 186.368)" fill="#2A2A2A"/>
<circle r="1.5981" transform="matrix(-1 0 0 1 45.0669 186.368)" fill="#2A2A2A"/>
<circle r="1.5981" transform="matrix(-1 0 0 1 45.0669 186.368)" fill="#2A2A2A"/>
<circle r="1.5981" transform="matrix(-1 0 0 1 45.0669 186.368)" fill="#2A2A2A"/>
<circle r="1.5981" transform="matrix(-1 0 0 1 45.0669 186.368)" fill="#2A2A2A"/>
<circle r="1.5981" transform="matrix(-1 0 0 1 45.0669 186.368)" fill="#2A2A2A"/>
<circle r="1.5981" transform="matrix(-1 0 0 1 45.0669 186.368)" fill="#2A2A2A"/>
<circle r="1.5981" transform="matrix(-1 0 0 1 45.0669 186.368)" fill="#2A2A2A"/>
<circle r="1.5981" transform="matrix(-1 0 0 1 45.0669 186.368)" fill="#2A2A2A"/>
<circle r="1.5981" transform="matrix(-1 0 0 1 45.0669 186.368)" fill="#2A2A2A"/>
<circle r="1.5981" transform="matrix(-1 0 0 1 45.0669 186.368)" fill="#2A2A2A"/>
<circle r="1.5981" transform="matrix(-1 0 0 1 45.0669 186.368)" fill="#2A2A2A"/>
<circle r="1.5981" transform="matrix(-1 0 0 1 34.1998 186.368)" fill="#2A2A2A"/>
<circle r="1.5981" transform="matrix(-1 0 0 1 23.3326 186.368)" fill="#2A2A2A"/>
<circle r="1.5981" transform="matrix(-1 0 0 1 23.3326 186.368)" fill="#2A2A2A"/>
<circle r="1.5981" transform="matrix(-1 0 0 1 23.3326 186.368)" fill="#2A2A2A"/>
<circle r="1.5981" transform="matrix(-1 0 0 1 23.3326 186.368)" fill="#2A2A2A"/>
<circle r="1.5981" transform="matrix(-1 0 0 1 23.3326 186.368)" fill="#2A2A2A"/>
<circle r="1.5981" transform="matrix(-1 0 0 1 23.3326 186.368)" fill="#2A2A2A"/>
<circle r="1.5981" transform="matrix(-1 0 0 1 23.3326 186.368)" fill="#2A2A2A"/>
<circle r="1.5981" transform="matrix(-1 0 0 1 23.3326 186.368)" fill="#2A2A2A"/>
<circle r="1.5981" transform="matrix(-1 0 0 1 23.3326 186.368)" fill="#2A2A2A"/>
<circle r="1.5981" transform="matrix(-1 0 0 1 23.3326 186.368)" fill="#2A2A2A"/>
<circle r="1.5981" transform="matrix(-1 0 0 1 23.3326 186.368)" fill="#2A2A2A"/>
<circle r="1.5981" transform="matrix(-1 0 0 1 23.3326 186.368)" fill="#2A2A2A"/>
<circle r="1.5981" transform="matrix(-1 0 0 1 23.3326 186.368)" fill="#2A2A2A"/>
<circle r="1.5981" transform="matrix(-1 0 0 1 23.3326 186.368)" fill="#2A2A2A"/>
<circle r="1.5981" transform="matrix(-1 0 0 1 23.3326 186.368)" fill="#2A2A2A"/>
<circle r="1.5981" transform="matrix(-1 0 0 1 12.4652 186.368)" fill="#2A2A2A"/>
<circle r="1.5981" transform="matrix(-1 0 0 1 1.5981 186.368)" fill="#2A2A2A"/>
<circle r="1.5981" transform="matrix(-1 0 0 1 1.5981 186.368)" fill="#2A2A2A"/>
<circle r="1.5981" transform="matrix(-1 0 0 1 1.5981 186.368)" fill="#2A2A2A"/>
<circle r="1.5981" transform="matrix(-1 0 0 1 1.5981 186.368)" fill="#2A2A2A"/>
<circle r="1.5981" transform="matrix(-1 0 0 1 1.5981 186.368)" fill="#2A2A2A"/>
<circle r="1.5981" transform="matrix(-1 0 0 1 1.5981 186.368)" fill="#2A2A2A"/>
<circle r="1.5981" transform="matrix(-1 0 0 1 1.5981 186.368)" fill="#2A2A2A"/>
<circle r="1.5981" transform="matrix(-1 0 0 1 1.5981 186.368)" fill="#2A2A2A"/>
<circle r="1.5981" transform="matrix(-1 0 0 1 1.5981 186.368)" fill="#2A2A2A"/>
<circle r="1.5981" transform="matrix(-1 0 0 1 1.5981 186.368)" fill="#2A2A2A"/>
<circle r="1.5981" transform="matrix(-1 0 0 1 1.5981 186.368)" fill="#2A2A2A"/>
<circle r="1.5981" transform="matrix(-1 0 0 1 1.5981 186.368)" fill="#2A2A2A"/>
<circle r="1.5981" transform="matrix(-1 0 0 1 1.5981 186.368)" fill="#2A2A2A"/>
<circle r="1.5981" transform="matrix(-1 0 0 1 1.5981 186.368)" fill="#2A2A2A"/>
<circle r="1.5981" transform="matrix(-1 0 0 1 1.5981 186.368)" fill="#2A2A2A"/>
</svg>
