<svg width="51" height="52" viewBox="0 0 51 52" fill="none" xmlns="http://www.w3.org/2000/svg">
<g clip-path="url(#clip0_1_1437)">
<path d="M9.83786 0.923828C4.43278 0.923828 0.0090332 5.34747 0.0090332 10.7527V41.2533C0.0090332 46.6583 4.43267 51.0805 9.83786 51.0805H40.3385C45.7436 51.0805 50.1657 46.6584 50.1657 41.2533V10.7527C50.1657 5.34757 45.7436 0.923828 40.3385 0.923828H9.83786ZM12.31 9.20068C14.9016 9.20068 16.4979 10.902 16.5472 13.1384C16.5472 15.3255 14.9015 17.0747 12.2598 17.0747H12.2112C9.66891 17.0747 8.02571 15.3256 8.02571 13.1384C8.02571 10.9021 9.71869 9.20068 12.31 9.20068ZM34.6434 19.6534C39.6276 19.6534 43.364 22.9111 43.364 29.9117V42.9806H35.7894V30.7879C35.7894 27.724 34.6931 25.6337 31.9519 25.6337C29.8593 25.6337 28.6119 27.0426 28.0643 28.4036C27.8642 28.8906 27.815 29.5706 27.815 30.2518V42.9806H20.2404C20.2404 42.9806 20.3398 22.3265 20.2404 20.1879H27.8166V23.4156C28.8232 21.8625 30.6237 19.6534 34.6434 19.6534ZM8.4725 20.1895H16.0471V42.9808H8.4725V20.1895Z" fill="#2A2A2A"/>
</g>
<defs>
<clipPath id="clip0_1_1437">
<rect width="50.1786" height="50.1786" fill="white" transform="translate(0 0.911133)"/>
</clipPath>
</defs>
</svg>
