<svg width="213" height="56" viewBox="0 0 213 56" fill="none" xmlns="http://www.w3.org/2000/svg">
<path d="M212.061 45.0606C212.646 44.4749 212.646 43.5251 212.061 42.9393L202.515 33.3934C201.929 32.8076 200.979 32.8076 200.393 33.3934C199.808 33.9792 199.808 34.9289 200.393 35.5147L208.879 44L200.393 52.4853C199.808 53.0711 199.808 54.0208 200.393 54.6066C200.979 55.1924 201.929 55.1924 202.515 54.6066L212.061 45.0606ZM1.31134e-07 45.5L211 45.5L211 42.5L-1.31134e-07 42.5L1.31134e-07 45.5Z" fill="#2A2A2A"/>
<path d="M13.2955 4.45454L13.2955 19L11.5909 19L3.66477 7.57954L3.52273 7.57954L3.52273 19L1.76136 19L1.76136 4.45454L3.46591 4.45454L11.4205 15.9034L11.5625 15.9034L11.5625 4.45454L13.2955 4.45454ZM16.82 19L16.82 4.45454L25.5984 4.45454L25.5984 6.01704L18.5813 6.01704L18.5813 10.9318L25.1438 10.9318L25.1438 12.4943L18.5813 12.4943L18.5813 17.4375L25.712 17.4375L25.712 19L16.82 19ZM29.6254 4.45454L33.3754 10.5057L33.489 10.5057L37.239 4.45454L39.3129 4.45454L34.739 11.7273L39.3129 19L37.239 19L33.489 13.0625L33.3754 13.0625L29.6254 19L27.5515 19L32.239 11.7273L27.5515 4.45454L29.6254 4.45454ZM40.8097 6.01704L40.8097 4.45454L51.7188 4.45454L51.7188 6.01704L47.1449 6.01704L47.1449 19L45.3835 19L45.3835 6.01704L40.8097 6.01704ZM60.0621 19L60.0621 4.45454L64.9769 4.45454C66.118 4.45454 67.0508 4.66051 67.7752 5.07244C68.5044 5.47964 69.0442 6.03125 69.3945 6.72727C69.7449 7.42329 69.9201 8.19981 69.9201 9.05682C69.9201 9.91382 69.7449 10.6927 69.3945 11.3935C69.0489 12.0942 68.5139 12.6529 67.7894 13.0696C67.065 13.4815 66.137 13.6875 65.0053 13.6875L61.4826 13.6875L61.4826 12.125L64.9485 12.125C65.7298 12.125 66.3571 11.9901 66.8306 11.7202C67.3041 11.4503 67.6474 11.0857 67.8604 10.6264C68.0782 10.1624 68.1871 9.6392 68.1871 9.05682C68.1871 8.47443 68.0782 7.9536 67.8604 7.49431C67.6474 7.03503 67.3017 6.67519 66.8235 6.41477C66.3453 6.14962 65.7108 6.01704 64.9201 6.01704L61.8235 6.01704L61.8235 19L60.0621 19ZM72.7575 19L72.7575 4.45454L77.6722 4.45454C78.8086 4.45454 79.7414 4.64867 80.4705 5.03693C81.1997 5.42045 81.7395 5.94839 82.0898 6.62074C82.4402 7.29308 82.6154 8.05776 82.6154 8.91477C82.6154 9.77178 82.4402 10.5317 82.0898 11.1946C81.7395 11.8575 81.2021 12.3783 80.4776 12.7571C79.7532 13.1312 78.8275 13.3182 77.7006 13.3182L73.7234 13.3182L73.7234 11.7273L77.6438 11.7273C78.4203 11.7273 79.0453 11.6136 79.5188 11.3864C79.997 11.1591 80.3427 10.8371 80.5558 10.4205C80.7736 9.99905 80.8825 9.49716 80.8825 8.91477C80.8825 8.33238 80.7736 7.82339 80.5558 7.38778C80.338 6.95217 79.9899 6.616 79.5117 6.37926C79.0335 6.13778 78.4014 6.01704 77.6154 6.01704L74.5188 6.01704L74.5188 19L72.7575 19ZM79.604 12.4659L83.1836 19L81.1381 19L77.6154 12.4659L79.604 12.4659ZM97.8232 11.7273C97.8232 13.2614 97.5462 14.5871 96.9922 15.7045C96.4382 16.822 95.6783 17.6837 94.7124 18.2898C93.7464 18.8958 92.6432 19.1989 91.4027 19.1989C90.1622 19.1989 89.0589 18.8958 88.093 18.2898C87.1271 17.6837 86.3672 16.822 85.8132 15.7045C85.2592 14.5871 84.9822 13.2614 84.9822 11.7273C84.9822 10.1932 85.2592 8.86742 85.8132 7.75C86.3672 6.63257 87.1271 5.77083 88.093 5.16477C89.0589 4.55871 90.1622 4.25568 91.4027 4.25568C92.6432 4.25568 93.7464 4.55871 94.7124 5.16477C95.6783 5.77083 96.4382 6.63257 96.9922 7.75C97.5462 8.86742 97.8232 10.1932 97.8232 11.7273ZM96.1186 11.7273C96.1186 10.4678 95.9079 9.40483 95.4865 8.53835C95.0698 7.67187 94.504 7.01609 93.7891 6.57102C93.0788 6.12594 92.2834 5.9034 91.4027 5.9034C90.522 5.9034 89.7242 6.12594 89.0092 6.57102C88.299 7.01609 87.7332 7.67187 87.3118 8.53835C86.8951 9.40483 86.6868 10.4678 86.6868 11.7273C86.6868 12.9867 86.8951 14.0497 87.3118 14.9162C87.7332 15.7827 88.299 16.4384 89.0092 16.8835C89.7242 17.3286 90.522 17.5511 91.4027 17.5511C92.2834 17.5511 93.0788 17.3286 93.7891 16.8835C94.504 16.4384 95.0698 15.7827 95.4865 14.9162C95.9079 14.0497 96.1186 12.9867 96.1186 11.7273ZM106.353 4.45454L108.114 4.45454L108.114 14.8523C108.114 15.7803 107.944 16.5687 107.603 17.2173C107.262 17.866 106.781 18.3584 106.161 18.6946C105.541 19.0308 104.809 19.1989 103.967 19.1989C103.171 19.1989 102.463 19.0544 101.843 18.7656C101.223 18.4721 100.735 18.0554 100.38 17.5156C100.025 16.9758 99.8473 16.3343 99.8473 15.5909L101.58 15.5909C101.58 16.0028 101.682 16.3627 101.886 16.6705C102.094 16.9735 102.378 17.2102 102.738 17.3807C103.098 17.5511 103.507 17.6364 103.967 17.6364C104.473 17.6364 104.904 17.5298 105.259 17.3168C105.614 17.1037 105.884 16.7912 106.069 16.3793C106.258 15.9626 106.353 15.4536 106.353 14.8523L106.353 4.45454ZM111.644 19L111.644 4.45454L120.423 4.45454L120.423 6.01704L113.406 6.01704L113.406 10.9318L119.968 10.9318L119.968 12.4943L113.406 12.4943L113.406 17.4375L120.536 17.4375L120.536 19L111.644 19ZM135.302 8.99999L133.54 8.99999C133.436 8.49337 133.254 8.04829 132.994 7.66477C132.738 7.28124 132.425 6.95927 132.056 6.69886C131.692 6.43371 131.287 6.23484 130.842 6.10227C130.397 5.96969 129.933 5.9034 129.45 5.9034C128.569 5.9034 127.771 6.12594 127.056 6.57102C126.346 7.01609 125.78 7.67187 125.359 8.53835C124.942 9.40482 124.734 10.4678 124.734 11.7273C124.734 12.9867 124.942 14.0497 125.359 14.9162C125.78 15.7827 126.346 16.4384 127.056 16.8835C127.771 17.3286 128.569 17.5511 129.45 17.5511C129.933 17.5511 130.397 17.4848 130.842 17.3523C131.287 17.2197 131.692 17.0232 132.056 16.7628C132.425 16.4976 132.738 16.1733 132.994 15.7898C133.254 15.4015 133.436 14.9564 133.54 14.4545L135.302 14.4545C135.169 15.1979 134.928 15.8632 134.577 16.4503C134.227 17.0374 133.791 17.5369 133.271 17.9489C132.75 18.3561 132.165 18.6662 131.516 18.8793C130.872 19.0923 130.183 19.1989 129.45 19.1989C128.209 19.1989 127.106 18.8958 126.14 18.2898C125.174 17.6837 124.414 16.822 123.86 15.7045C123.306 14.5871 123.029 13.2614 123.029 11.7273C123.029 10.1932 123.306 8.86742 123.86 7.74999C124.414 6.63257 125.174 5.77083 126.14 5.16477C127.106 4.55871 128.209 4.25568 129.45 4.25568C130.183 4.25568 130.872 4.36221 131.516 4.57528C132.165 4.78835 132.75 5.10085 133.271 5.51278C133.791 5.91997 134.227 6.41713 134.577 7.00426C134.928 7.58664 135.169 8.25189 135.302 8.99999ZM137.353 6.01704L137.353 4.45454L148.262 4.45454L148.262 6.01704L143.688 6.01704L143.688 19L141.926 19L141.926 6.01704L137.353 6.01704Z" fill="#2A2A2A"/>
</svg>
