<svg width="213" height="56" viewBox="0 0 213 56" fill="none" xmlns="http://www.w3.org/2000/svg">
<path d="M0.93934 45.0606C0.353553 44.4749 0.353553 43.5251 0.93934 42.9393L10.4853 33.3934C11.0711 32.8076 12.0208 32.8076 12.6066 33.3934C13.1924 33.9792 13.1924 34.9289 12.6066 35.5147L4.12132 44L12.6066 52.4853C13.1924 53.0711 13.1924 54.0208 12.6066 54.6066C12.0208 55.1924 11.0711 55.1924 10.4853 54.6066L0.93934 45.0606ZM213 45.5L2 45.5L2 42.5L213 42.5L213 45.5Z" fill="#2A2A2A"/>
<path d="M18.7614 19L18.7614 4.45454L23.6761 4.45454C24.8172 4.45454 25.75 4.66051 26.4744 5.07244C27.2036 5.47964 27.7434 6.03125 28.0938 6.72727C28.4441 7.42329 28.6193 8.19981 28.6193 9.05682C28.6193 9.91383 28.4441 10.6927 28.0938 11.3935C27.7481 12.0942 27.2131 12.6529 26.4886 13.0696C25.7642 13.4815 24.8362 13.6875 23.7045 13.6875L20.1818 13.6875L20.1818 12.125L23.6477 12.125C24.429 12.125 25.0563 11.9901 25.5298 11.7202C26.0033 11.4503 26.3466 11.0857 26.5597 10.6264C26.7775 10.1624 26.8864 9.6392 26.8864 9.05682C26.8864 8.47443 26.7775 7.9536 26.5597 7.49432C26.3466 7.03504 26.0009 6.67519 25.5227 6.41477C25.0445 6.14962 24.41 6.01704 23.6193 6.01704L20.5227 6.01704L20.5227 19L18.7614 19ZM31.4567 19L31.4567 4.45454L36.3714 4.45454C37.5078 4.45454 38.4406 4.64867 39.1697 5.03693C39.8989 5.42045 40.4387 5.94839 40.7891 6.62074C41.1394 7.29309 41.3146 8.05776 41.3146 8.91477C41.3146 9.77178 41.1394 10.5317 40.7891 11.1946C40.4387 11.8575 39.9013 12.3783 39.1768 12.7571C38.4524 13.1312 37.5268 13.3182 36.3999 13.3182L32.4226 13.3182L32.4226 11.7273L36.343 11.7273C37.1196 11.7273 37.7446 11.6136 38.218 11.3864C38.6963 11.1591 39.0419 10.8371 39.255 10.4205C39.4728 9.99905 39.5817 9.49716 39.5817 8.91477C39.5817 8.33238 39.4728 7.82339 39.255 7.38778C39.0372 6.95218 38.6892 6.616 38.2109 6.37926C37.7327 6.13778 37.1006 6.01704 36.3146 6.01704L33.218 6.01704L33.218 19L31.4567 19ZM38.3033 12.4659L41.8828 19L39.8374 19L36.3146 12.4659L38.3033 12.4659ZM44.2496 19L44.2496 4.45454L53.0281 4.45454L53.0281 6.01704L46.011 6.01704L46.011 10.9318L52.5735 10.9318L52.5735 12.4943L46.011 12.4943L46.011 17.4375L53.1417 17.4375L53.1417 19L44.2496 19ZM56.7994 4.45454L61.1175 16.6989L61.288 16.6989L65.6062 4.45454L67.4528 4.45454L62.1119 19L60.2937 19L54.9528 4.45454L56.7994 4.45454ZM71.4798 4.45454L71.4798 19L69.7184 19L69.7184 4.45454L71.4798 4.45454ZM87.2841 11.7273C87.2841 13.2614 87.0071 14.5871 86.4531 15.7045C85.8991 16.822 85.1392 17.6837 84.1733 18.2898C83.2074 18.8958 82.1042 19.1989 80.8636 19.1989C79.6231 19.1989 78.5199 18.8958 77.554 18.2898C76.5881 17.6837 75.8281 16.822 75.2741 15.7045C74.7202 14.5871 74.4432 13.2614 74.4432 11.7273C74.4432 10.1932 74.7202 8.86742 75.2741 7.75C75.8281 6.63257 76.5881 5.77083 77.554 5.16477C78.5199 4.55871 79.6231 4.25568 80.8636 4.25568C82.1042 4.25568 83.2074 4.55871 84.1733 5.16477C85.1392 5.77083 85.8991 6.63257 86.4531 7.75C87.0071 8.86742 87.2841 10.1932 87.2841 11.7273ZM85.5795 11.7273C85.5795 10.4678 85.3688 9.40483 84.9474 8.53835C84.5308 7.67187 83.965 7.0161 83.25 6.57102C82.5398 6.12594 81.7443 5.90341 80.8636 5.90341C79.983 5.90341 79.1851 6.12594 78.4702 6.57102C77.7599 7.0161 77.1941 7.67187 76.7727 8.53835C76.3561 9.40483 76.1477 10.4678 76.1477 11.7273C76.1477 12.9867 76.3561 14.0497 76.7727 14.9162C77.1941 15.7827 77.7599 16.4384 78.4702 16.8835C79.1851 17.3286 79.983 17.5511 80.8636 17.5511C81.7443 17.5511 82.5398 17.3286 83.25 16.8835C83.965 16.4384 84.5308 15.7827 84.9474 14.9162C85.3688 14.0497 85.5795 12.9867 85.5795 11.7273ZM99.7912 4.45454L101.553 4.45454L101.553 14.0852C101.553 15.0795 101.318 15.9673 100.849 16.7486C100.385 17.5251 99.7296 18.1383 98.8821 18.5881C98.0346 19.0331 97.0402 19.2557 95.8991 19.2557C94.7581 19.2557 93.7637 19.0331 92.9162 18.5881C92.0687 18.1383 91.4105 17.5251 90.9418 16.7486C90.4777 15.9673 90.2457 15.0795 90.2457 14.0852L90.2457 4.45454L92.0071 4.45454L92.0071 13.9432C92.0071 14.6534 92.1634 15.2855 92.4759 15.8395C92.7884 16.3887 93.2334 16.822 93.8111 17.1392C94.3935 17.4517 95.0895 17.608 95.8991 17.608C96.7088 17.608 97.4048 17.4517 97.9872 17.1392C98.5696 16.822 99.0147 16.3887 99.3224 15.8395C99.6349 15.2855 99.7912 14.6534 99.7912 13.9432L99.7912 4.45454ZM113.025 8.0909C112.939 7.37121 112.594 6.8125 111.988 6.41477C111.382 6.01704 110.638 5.81818 109.757 5.81818C109.114 5.81818 108.55 5.92234 108.067 6.13068C107.589 6.33901 107.215 6.62547 106.945 6.99005C106.68 7.35464 106.547 7.76893 106.547 8.23295C106.547 8.62121 106.64 8.95501 106.824 9.23437C107.014 9.50899 107.255 9.73863 107.549 9.92329C107.842 10.1032 108.15 10.2524 108.472 10.3707C108.794 10.4844 109.09 10.5767 109.36 10.6477L110.837 11.0455C111.216 11.1449 111.637 11.2822 112.101 11.4574C112.57 11.6326 113.017 11.8717 113.444 12.1747C113.874 12.473 114.23 12.8565 114.509 13.3253C114.788 13.794 114.928 14.3693 114.928 15.0511C114.928 15.8371 114.722 16.5473 114.31 17.1818C113.903 17.8163 113.306 18.3205 112.52 18.6946C111.739 19.0687 110.79 19.2557 109.672 19.2557C108.631 19.2557 107.729 19.0876 106.966 18.7514C106.209 18.4152 105.612 17.9465 105.176 17.3452C104.746 16.7438 104.502 16.0455 104.445 15.25L106.263 15.25C106.31 15.7992 106.495 16.2538 106.817 16.6136C107.144 16.9687 107.556 17.2339 108.053 17.4091C108.555 17.5795 109.095 17.6648 109.672 17.6648C110.345 17.6648 110.948 17.5559 111.483 17.3381C112.018 17.1155 112.442 16.8078 112.755 16.4148C113.067 16.017 113.223 15.553 113.223 15.0227C113.223 14.5398 113.088 14.1468 112.819 13.8437C112.549 13.5407 112.194 13.2945 111.753 13.1051C111.313 12.9157 110.837 12.75 110.326 12.608L108.536 12.0966C107.4 11.7699 106.5 11.3035 105.837 10.6974C105.174 10.0914 104.843 9.29829 104.843 8.31818C104.843 7.50378 105.063 6.79356 105.503 6.1875C105.948 5.5767 106.545 5.10322 107.293 4.76704C108.046 4.42613 108.886 4.25568 109.814 4.25568C110.752 4.25568 111.585 4.42376 112.314 4.75994C113.043 5.09138 113.621 5.54592 114.047 6.12357C114.478 6.70123 114.705 7.357 114.729 8.0909L113.025 8.0909ZM123.449 19L123.449 4.45454L128.364 4.45454C129.505 4.45454 130.438 4.66051 131.162 5.07244C131.891 5.47963 132.431 6.03124 132.781 6.72727C133.132 7.42329 133.307 8.19981 133.307 9.05681C133.307 9.91382 133.132 10.6927 132.781 11.3935C132.436 12.0942 131.901 12.6529 131.176 13.0696C130.452 13.4815 129.524 13.6875 128.392 13.6875L124.869 13.6875L124.869 12.125L128.335 12.125C129.116 12.125 129.744 11.9901 130.217 11.7202C130.691 11.4503 131.034 11.0857 131.247 10.6264C131.465 10.1624 131.574 9.6392 131.574 9.05681C131.574 8.47443 131.465 7.95359 131.247 7.49431C131.034 7.03503 130.688 6.67518 130.21 6.41477C129.732 6.14962 129.098 6.01704 128.307 6.01704L125.21 6.01704L125.21 19L123.449 19ZM136.144 19L136.144 4.45454L141.059 4.45454C142.195 4.45454 143.128 4.64867 143.857 5.03693C144.586 5.42045 145.126 5.94838 145.477 6.62073C145.827 7.29308 146.002 8.05776 146.002 8.91477C146.002 9.77177 145.827 10.5317 145.477 11.1946C145.126 11.8575 144.589 12.3783 143.864 12.7571C143.14 13.1311 142.214 13.3182 141.087 13.3182L137.11 13.3182L137.11 11.7273L141.031 11.7273C141.807 11.7273 142.432 11.6136 142.906 11.3864C143.384 11.1591 143.729 10.8371 143.942 10.4204C144.16 9.99905 144.269 9.49715 144.269 8.91477C144.269 8.33238 144.16 7.82338 143.942 7.38778C143.725 6.95217 143.377 6.616 142.898 6.37926C142.42 6.13778 141.788 6.01704 141.002 6.01704L137.906 6.01704L137.906 19L136.144 19ZM142.991 12.4659L146.57 19L144.525 19L141.002 12.4659L142.991 12.4659ZM161.21 11.7273C161.21 13.2614 160.933 14.5871 160.379 15.7045C159.825 16.822 159.065 17.6837 158.099 18.2898C157.133 18.8958 156.03 19.1989 154.789 19.1989C153.549 19.1989 152.446 18.8958 151.48 18.2898C150.514 17.6837 149.754 16.822 149.2 15.7045C148.646 14.5871 148.369 13.2614 148.369 11.7273C148.369 10.1932 148.646 8.86742 149.2 7.74999C149.754 6.63257 150.514 5.77083 151.48 5.16477C152.446 4.55871 153.549 4.25568 154.789 4.25568C156.03 4.25568 157.133 4.55871 158.099 5.16477C159.065 5.77083 159.825 6.63257 160.379 7.74999C160.933 8.86742 161.21 10.1932 161.21 11.7273ZM159.505 11.7273C159.505 10.4678 159.295 9.40482 158.873 8.53835C158.457 7.67187 157.891 7.01609 157.176 6.57102C156.466 6.12594 155.67 5.9034 154.789 5.9034C153.909 5.9034 153.111 6.12594 152.396 6.57102C151.686 7.01609 151.12 7.67187 150.699 8.53835C150.282 9.40482 150.074 10.4678 150.074 11.7273C150.074 12.9867 150.282 14.0497 150.699 14.9162C151.12 15.7827 151.686 16.4384 152.396 16.8835C153.111 17.3286 153.909 17.5511 154.789 17.5511C155.67 17.5511 156.466 17.3286 157.176 16.8835C157.891 16.4384 158.457 15.7827 158.873 14.9162C159.295 14.0497 159.505 12.9867 159.505 11.7273ZM169.74 4.45454L171.501 4.45454L171.501 14.8523C171.501 15.7803 171.331 16.5686 170.99 17.2173C170.649 17.866 170.168 18.3584 169.548 18.6946C168.928 19.0308 168.196 19.1989 167.353 19.1989C166.558 19.1989 165.85 19.0544 165.23 18.7656C164.609 18.4721 164.122 18.0554 163.767 17.5156C163.412 16.9758 163.234 16.3343 163.234 15.5909L164.967 15.5909C164.967 16.0028 165.069 16.3627 165.272 16.6704C165.481 16.9735 165.765 17.2102 166.125 17.3807C166.484 17.5511 166.894 17.6364 167.353 17.6364C167.86 17.6364 168.291 17.5298 168.646 17.3168C169.001 17.1037 169.271 16.7912 169.456 16.3793C169.645 15.9626 169.74 15.4536 169.74 14.8523L169.74 4.45454ZM175.031 19L175.031 4.45454L183.809 4.45454L183.809 6.01704L176.792 6.01704L176.792 10.9318L183.355 10.9318L183.355 12.4943L176.792 12.4943L176.792 17.4375L183.923 17.4375L183.923 19L175.031 19ZM198.689 8.99999L196.927 8.99999C196.823 8.49336 196.641 8.04829 196.38 7.66476C196.125 7.28124 195.812 6.95927 195.443 6.69886C195.078 6.4337 194.673 6.23484 194.228 6.10226C193.783 5.96969 193.319 5.9034 192.836 5.9034C191.956 5.9034 191.158 6.12594 190.443 6.57101C189.733 7.01609 189.167 7.67187 188.745 8.53834C188.329 9.40482 188.12 10.4678 188.12 11.7273C188.12 12.9867 188.329 14.0497 188.745 14.9162C189.167 15.7827 189.733 16.4384 190.443 16.8835C191.158 17.3286 191.956 17.5511 192.836 17.5511C193.319 17.5511 193.783 17.4848 194.228 17.3523C194.673 17.2197 195.078 17.0232 195.443 16.7628C195.812 16.4976 196.125 16.1733 196.38 15.7898C196.641 15.4015 196.823 14.9564 196.927 14.4545L198.689 14.4545C198.556 15.1979 198.315 15.8632 197.964 16.4503C197.614 17.0374 197.178 17.5369 196.657 17.9489C196.136 18.3561 195.552 18.6662 194.903 18.8793C194.259 19.0923 193.57 19.1989 192.836 19.1989C191.596 19.1989 190.493 18.8958 189.527 18.2898C188.561 17.6837 187.801 16.822 187.247 15.7045C186.693 14.5871 186.416 13.2614 186.416 11.7273C186.416 10.1932 186.693 8.86742 187.247 7.74999C187.801 6.63257 188.561 5.77083 189.527 5.16476C190.493 4.5587 191.596 4.25567 192.836 4.25567C193.57 4.25567 194.259 4.36221 194.903 4.57528C195.552 4.78834 196.136 5.10084 196.657 5.51278C197.178 5.91997 197.614 6.41713 197.964 7.00425C198.315 7.58664 198.556 8.25189 198.689 8.99999ZM200.739 6.01704L200.739 4.45454L211.648 4.45454L211.648 6.01704L207.075 6.01704L207.075 19L205.313 19L205.313 6.01704L200.739 6.01704Z" fill="#2A2A2A"/>
</svg>
