<svg width="56" height="213" viewBox="0 0 56 213" fill="none" xmlns="http://www.w3.org/2000/svg">
<path d="M10.4393 212.061C11.0251 212.646 11.9749 212.646 12.5607 212.061L22.1066 202.515C22.6924 201.929 22.6924 200.979 22.1066 200.393C21.5208 199.808 20.5711 199.808 19.9853 200.393L11.5 208.879L3.01473 200.393C2.42894 199.808 1.47919 199.808 0.893407 200.393C0.307621 200.979 0.307621 201.929 0.893407 202.515L10.4393 212.061ZM10 6.55671e-08L10 211L13 211L13 -6.55671e-08L10 6.55671e-08Z" fill="#2A2A2A"/>
<path d="M47.4091 9.71591C48.1288 9.63068 48.6875 9.28504 49.0852 8.67898C49.483 8.07292 49.6818 7.32955 49.6818 6.44886C49.6818 5.80492 49.5777 5.24148 49.3693 4.75852C49.161 4.2803 48.8745 3.90625 48.51 3.63636C48.1454 3.37121 47.7311 3.23864 47.2671 3.23864C46.8788 3.23864 46.545 3.33097 46.2656 3.51563C45.991 3.70502 45.7614 3.9465 45.5767 4.24006C45.3968 4.53362 45.2476 4.84138 45.1293 5.16335C45.0156 5.48532 44.9233 5.78125 44.8523 6.05114L44.4546 7.52841C44.3551 7.9072 44.2178 8.3286 44.0426 8.79261C43.8674 9.26136 43.6283 9.70881 43.3253 10.1349C43.027 10.5658 42.6435 10.9209 42.1747 11.2003C41.706 11.4796 41.1307 11.6193 40.4489 11.6193C39.6629 11.6193 38.9527 11.4134 38.3182 11.0014C37.6837 10.5942 37.1795 9.99763 36.8054 9.21165C36.4314 8.4304 36.2443 7.48106 36.2443 6.36364C36.2443 5.32197 36.4124 4.41998 36.7486 3.65767C37.0848 2.90009 37.5535 2.3035 38.1548 1.8679C38.7562 1.43703 39.4546 1.19318 40.25 1.13636V2.95455C39.7008 3.00189 39.2462 3.18655 38.8864 3.50852C38.5313 3.83523 38.2661 4.24716 38.0909 4.74432C37.9205 5.24621 37.8352 5.78598 37.8352 6.36364C37.8352 7.03598 37.9441 7.63968 38.1619 8.17472C38.3845 8.70975 38.6922 9.13352 39.0852 9.44602C39.483 9.75852 39.947 9.91477 40.4773 9.91477C40.9602 9.91477 41.3532 9.77983 41.6563 9.50994C41.9593 9.24006 42.2055 8.88494 42.3949 8.4446C42.5843 8.00426 42.75 7.52841 42.8921 7.01705L43.4034 5.22727C43.7301 4.09091 44.1965 3.19129 44.8026 2.52841C45.4086 1.86553 46.2017 1.53409 47.1818 1.53409C47.9962 1.53409 48.7064 1.75426 49.3125 2.1946C49.9233 2.63968 50.3968 3.23627 50.733 3.98438C51.0739 4.73722 51.2443 5.57765 51.2443 6.50568C51.2443 7.44318 51.0762 8.27652 50.7401 9.00568C50.4086 9.73485 49.9541 10.3125 49.3764 10.7386C48.7988 11.1695 48.143 11.3968 47.4091 11.4205V9.71591ZM46.5 26.2198V24.4585C47.0066 24.3543 47.4517 24.172 47.8352 23.9116C48.2188 23.6559 48.5407 23.3434 48.8011 22.9741C49.0663 22.6095 49.2652 22.2047 49.3977 21.7596C49.5303 21.3145 49.5966 20.8505 49.5966 20.3675C49.5966 19.4869 49.3741 18.689 48.929 17.9741C48.4839 17.2638 47.8281 16.698 46.9617 16.2766C46.0952 15.86 45.0322 15.6516 43.7727 15.6516C42.5133 15.6516 41.4503 15.86 40.5838 16.2766C39.7173 16.698 39.0616 17.2638 38.6165 17.9741C38.1714 18.689 37.9489 19.4869 37.9489 20.3675C37.9489 20.8505 38.0152 21.3145 38.1477 21.7596C38.2803 22.2047 38.4768 22.6095 38.7372 22.9741C39.0024 23.3434 39.3267 23.6559 39.7102 23.9116C40.0985 24.172 40.5436 24.3543 41.0455 24.4585V26.2198C40.3021 26.0872 39.6368 25.8458 39.0497 25.4954C38.4626 25.145 37.9631 24.7094 37.5511 24.1886C37.1439 23.6677 36.8338 23.083 36.6207 22.4343C36.4077 21.7904 36.3011 21.1014 36.3011 20.3675C36.3011 19.127 36.6042 18.0238 37.2102 17.0579C37.8163 16.092 38.678 15.332 39.7955 14.7781C40.9129 14.2241 42.2386 13.9471 43.7727 13.9471C45.3068 13.9471 46.6326 14.2241 47.75 14.7781C48.8674 15.332 49.7292 16.092 50.3352 17.0579C50.9413 18.0238 51.2443 19.127 51.2443 20.3675C51.2443 21.1014 51.1378 21.7904 50.9247 22.4343C50.7117 23.083 50.3992 23.6677 49.9872 24.1886C49.58 24.7094 49.0829 25.145 48.4957 25.4954C47.9134 25.8458 47.2481 26.0872 46.5 26.2198ZM36.5 29.0661H51.0455V33.9808C51.0455 35.1172 50.8513 36.05 50.4631 36.7791C50.0796 37.5083 49.5516 38.0481 48.8793 38.3984C48.2069 38.7488 47.4422 38.924 46.5852 38.924C45.7282 38.924 44.9683 38.7488 44.3054 38.3984C43.6425 38.0481 43.1217 37.5107 42.7429 36.7862C42.3689 36.0618 42.1818 35.1361 42.1818 34.0092V30.032H43.7727V33.9524C43.7727 34.7289 43.8864 35.3539 44.1136 35.8274C44.3409 36.3056 44.6629 36.6513 45.0796 36.8643C45.501 37.0821 46.0028 37.1911 46.5852 37.1911C47.1676 37.1911 47.6766 37.0821 48.1122 36.8643C48.5478 36.6465 48.884 36.2985 49.1207 35.8203C49.3622 35.3421 49.483 34.71 49.483 33.924V30.8274H36.5V29.0661ZM43.0341 35.9126L36.5 39.4922V37.4467L43.0341 33.924V35.9126ZM43.7727 54.1317C42.2386 54.1317 40.9129 53.8548 39.7955 53.3008C38.678 52.7468 37.8163 51.9869 37.2102 51.021C36.6042 50.055 36.3011 48.9518 36.3011 47.7113C36.3011 46.4708 36.6042 45.3675 37.2102 44.4016C37.8163 43.4357 38.678 42.6758 39.7955 42.1218C40.9129 41.5678 42.2386 41.2908 43.7727 41.2908C45.3068 41.2908 46.6326 41.5678 47.75 42.1218C48.8674 42.6758 49.7292 43.4357 50.3352 44.4016C50.9413 45.3675 51.2443 46.4708 51.2443 47.7113C51.2443 48.9518 50.9413 50.055 50.3352 51.021C49.7292 51.9869 48.8674 52.7468 47.75 53.3008C46.6326 53.8548 45.3068 54.1317 43.7727 54.1317ZM43.7727 52.4272C45.0322 52.4272 46.0952 52.2165 46.9617 51.7951C47.8281 51.3784 48.4839 50.8126 48.929 50.0977C49.3741 49.3874 49.5966 48.592 49.5966 47.7113C49.5966 46.8306 49.3741 46.0328 48.929 45.3178C48.4839 44.6076 47.8281 44.0418 46.9617 43.6204C46.0952 43.2037 45.0322 42.9954 43.7727 42.9954C42.5133 42.9954 41.4503 43.2037 40.5838 43.6204C39.7173 44.0418 39.0616 44.6076 38.6165 45.3178C38.1714 46.0328 37.9489 46.8306 37.9489 47.7113C37.9489 48.592 38.1714 49.3874 38.6165 50.0977C39.0616 50.8126 39.7173 51.3784 40.5838 51.7951C41.4503 52.2165 42.5133 52.4272 43.7727 52.4272ZM36.5 57.0934H51.0455V58.8548H38.0625V65.6161H36.5V57.0934ZM36.5 68.3434H51.0455V70.1048H38.0625V76.8661H36.5V68.3434Z" fill="#2A2A2A"/>
</svg>
