<svg width="51" height="50" viewBox="0 0 51 50" fill="none" xmlns="http://www.w3.org/2000/svg">
<rect x="0.702393" y="0.000488281" width="50" height="50" rx="10" fill="#2A2A2A"/>
<path d="M30.8158 17.0136C30.8158 17.8687 30.9523 19.1589 28.9337 19.8899C28.3089 20.1164 27.887 20.5239 27.887 20.5239C27.887 18.4895 28.1967 17.7532 29.0288 17.3174C29.6687 16.9821 30.8158 17.0136 30.8158 17.0136ZM23.2164 19.3459L20.9694 28.0517L19.1004 20.9268C18.5958 18.8275 17.7348 17.742 15.9222 17.742C14.1261 17.742 13.2539 18.8039 12.744 20.9268L10.875 28.0517L8.62799 19.3459C8.26378 17.5924 6.56606 16.8344 5.00024 17.0313L9.30328 33.3017C9.30328 33.3017 10.7227 33.4041 11.4335 33.0419C12.3667 32.5661 12.8103 32.1992 13.3753 29.9857C13.8786 28.0124 15.2857 22.215 15.4176 21.8023C15.7299 20.8218 16.1453 20.896 16.4282 21.8023C16.5575 22.2157 17.9671 28.0124 18.4704 29.9857C19.0348 32.1992 19.4791 32.5661 20.4123 33.0419C21.1223 33.4041 22.5425 33.3017 22.5425 33.3017L26.8455 17.0313C25.2429 16.8299 23.5761 17.6174 23.2164 19.3459ZM30.8145 19.6878C30.8145 19.6878 30.5454 20.1039 29.9312 20.4471C29.5368 20.6676 29.1581 20.8172 28.7519 21.0121C27.7583 21.4886 27.887 21.9276 27.887 23.3221V33.3017C27.887 33.3017 28.9731 33.4389 29.6831 33.0766C30.5973 32.6107 30.8073 32.1612 30.8158 30.1379V20.2765L30.8145 20.2771V19.6878ZM41.5402 25.2056L47.0002 17.0851C47.0002 17.0851 44.6961 16.6927 43.5549 17.7315C42.6821 18.5256 41.953 19.6708 39.9994 22.4874C39.9685 22.5353 39.5892 23.1791 39.1416 22.4874C37.2195 19.716 36.4641 18.5309 35.5861 17.7315C34.4449 16.6927 32.1408 17.0851 32.1408 17.0851L37.6008 25.2056L32.1559 33.3011C32.1559 33.3011 34.5558 33.6043 35.6963 32.5654C36.4504 31.879 36.85 31.2286 39.1423 27.9244C39.5892 27.234 39.9672 27.8739 40 27.9244C41.9294 30.7056 42.5745 31.7346 43.4873 32.5654C44.6286 33.6043 46.9865 33.3011 46.9865 33.3011L41.5402 25.2056Z" fill="white"/>
</svg>
